<mxfile host="app.diagrams.net" modified="2021-01-25T15:32:13.523Z" agent="5.0 (Windows)" etag="R4pdsyyrTdguyzWNIcgC" version="14.2.7" type="github">
  <diagram id="DB7DYyGe6dCBV-LKf9_g" name="Page-1">
    <mxGraphModel dx="1564" dy="752" grid="1" gridSize="10" guides="1" tooltips="1" connect="1" arrows="1" fold="1" page="1" pageScale="1" pageWidth="827" pageHeight="1169" math="0" shadow="0">
      <root>
        <mxCell id="0" />
        <mxCell id="1" parent="0" />
        <mxCell id="Vw3KiEQnQfza69MFVmrH-1" value="Consommateur de Message" style="rounded=1;whiteSpace=wrap;html=1;" parent="1" vertex="1">
          <mxGeometry x="40" y="20" width="120" height="60" as="geometry" />
        </mxCell>
        <mxCell id="Vw3KiEQnQfza69MFVmrH-3" value="&lt;div&gt;Producteur&lt;/div&gt;&lt;div&gt;de Message&lt;br&gt;&lt;/div&gt;" style="rounded=1;whiteSpace=wrap;html=1;" parent="1" vertex="1">
          <mxGeometry x="630" y="20" width="120" height="60" as="geometry" />
        </mxCell>
        <mxCell id="Vw3KiEQnQfza69MFVmrH-16" value="" style="shape=datastore;whiteSpace=wrap;html=1;rotation=-90;" parent="1" vertex="1">
          <mxGeometry x="360" width="30" height="100" as="geometry" />
        </mxCell>
        <mxCell id="yvAMT9Jdo3WJvmyWWWsH-12" value="DÃ©claration Cotisation DSN PICRIS" style="swimlane;html=1;childLayout=stackLayout;resizeParent=1;resizeParentMax=0;horizontal=0;startSize=20;horizontalStack=0;" parent="1" vertex="1">
          <mxGeometry x="24" y="110" width="780" height="380" as="geometry" />
        </mxCell>
        <mxCell id="yvAMT9Jdo3WJvmyWWWsH-13" value="INTEG" style="swimlane;html=1;startSize=20;horizontal=0;" parent="yvAMT9Jdo3WJvmyWWWsH-12" vertex="1">
          <mxGeometry x="20" width="760" height="110" as="geometry" />
        </mxCell>
        <mxCell id="fmMvQ1CZ4i4TI4SBkcEm-40" value="BFF-NEC" style="rounded=1;whiteSpace=wrap;html=1;" parent="yvAMT9Jdo3WJvmyWWWsH-13" vertex="1">
          <mxGeometry x="556" y="30" width="120" height="30" as="geometry" />
        </mxCell>
        <mxCell id="yvAMT9Jdo3WJvmyWWWsH-14" value="QUALIF" style="swimlane;html=1;startSize=20;horizontal=0;" parent="yvAMT9Jdo3WJvmyWWWsH-12" vertex="1">
          <mxGeometry x="20" y="110" width="760" height="120" as="geometry" />
        </mxCell>
        <mxCell id="fmMvQ1CZ4i4TI4SBkcEm-62" value="DLQ" style="shape=datastore;whiteSpace=wrap;html=1;rotation=-90;fillColor=#dae8fc;strokeColor=#6c8ebf;" parent="yvAMT9Jdo3WJvmyWWWsH-14" vertex="1">
          <mxGeometry x="336" y="45" width="24" height="70" as="geometry" />
        </mxCell>
        <mxCell id="XuUBlldkIkATHeK3EOdW-91" value="" style="shape=datastore;whiteSpace=wrap;html=1;rotation=-90;fillColor=#dae8fc;strokeColor=#6c8ebf;" parent="yvAMT9Jdo3WJvmyWWWsH-14" vertex="1">
          <mxGeometry x="336" width="24" height="70" as="geometry" />
        </mxCell>
        <mxCell id="zpK8R6Z0TQCC7PV_zkhn-6" value="BFF-NEC" style="rounded=1;whiteSpace=wrap;html=1;" vertex="1" parent="yvAMT9Jdo3WJvmyWWWsH-14">
          <mxGeometry x="556" y="40" width="120" height="30" as="geometry" />
        </mxCell>
        <mxCell id="yvAMT9Jdo3WJvmyWWWsH-15" value="RECETTE" style="swimlane;html=1;startSize=20;horizontal=0;" parent="yvAMT9Jdo3WJvmyWWWsH-12" vertex="1">
          <mxGeometry x="20" y="230" width="760" height="150" as="geometry" />
        </mxCell>
        <mxCell id="fmMvQ1CZ4i4TI4SBkcEm-39" value="PICRIS" style="rounded=1;whiteSpace=wrap;html=1;fillColor=#dae8fc;strokeColor=#6c8ebf;" parent="yvAMT9Jdo3WJvmyWWWsH-15" vertex="1">
          <mxGeometry x="76" y="68" width="120" height="62" as="geometry" />
        </mxCell>
        <mxCell id="zpK8R6Z0TQCC7PV_zkhn-7" value="BFF-NEC" style="rounded=1;whiteSpace=wrap;html=1;" vertex="1" parent="yvAMT9Jdo3WJvmyWWWsH-15">
          <mxGeometry x="556" y="48" width="120" height="30" as="geometry" />
        </mxCell>
        <mxCell id="zpK8R6Z0TQCC7PV_zkhn-8" value="" style="shape=datastore;whiteSpace=wrap;html=1;rotation=-90;fillColor=#dae8fc;strokeColor=#6c8ebf;" vertex="1" parent="yvAMT9Jdo3WJvmyWWWsH-15">
          <mxGeometry x="336" y="8" width="24" height="70" as="geometry" />
        </mxCell>
        <mxCell id="zpK8R6Z0TQCC7PV_zkhn-9" value="DLQ" style="shape=datastore;whiteSpace=wrap;html=1;rotation=-90;fillColor=#dae8fc;strokeColor=#6c8ebf;" vertex="1" parent="yvAMT9Jdo3WJvmyWWWsH-15">
          <mxGeometry x="336" y="58" width="24" height="70" as="geometry" />
        </mxCell>
        <mxCell id="zpK8R6Z0TQCC7PV_zkhn-17" value="" style="endArrow=classic;html=1;strokeColor=#b85450;entryX=0.5;entryY=0;entryDx=0;entryDy=0;exitX=1;exitY=0.75;exitDx=0;exitDy=0;edgeStyle=orthogonalEdgeStyle;fillColor=#f8cecc;" edge="1" parent="yvAMT9Jdo3WJvmyWWWsH-15" source="fmMvQ1CZ4i4TI4SBkcEm-39" target="zpK8R6Z0TQCC7PV_zkhn-9">
          <mxGeometry relative="1" as="geometry">
            <mxPoint x="321" y="230" as="sourcePoint" />
            <mxPoint x="156" y="230" as="targetPoint" />
          </mxGeometry>
        </mxCell>
        <mxCell id="zpK8R6Z0TQCC7PV_zkhn-18" value="" style="shape=message;html=1;outlineConnect=0;fillColor=#f8cecc;strokeColor=#b85450;" vertex="1" parent="zpK8R6Z0TQCC7PV_zkhn-17">
          <mxGeometry width="20" height="14" relative="1" as="geometry">
            <mxPoint x="-10" y="-7" as="offset" />
          </mxGeometry>
        </mxCell>
        <mxCell id="zpK8R6Z0TQCC7PV_zkhn-14" value="" style="endArrow=classic;html=1;strokeColor=#000000;exitX=0.5;exitY=0;exitDx=0;exitDy=0;edgeStyle=orthogonalEdgeStyle;entryX=0.75;entryY=0;entryDx=0;entryDy=0;" edge="1" parent="yvAMT9Jdo3WJvmyWWWsH-15" source="zpK8R6Z0TQCC7PV_zkhn-8" target="fmMvQ1CZ4i4TI4SBkcEm-39">
          <mxGeometry relative="1" as="geometry">
            <mxPoint x="313" y="-85" as="sourcePoint" />
            <mxPoint x="196" y="90" as="targetPoint" />
            <Array as="points">
              <mxPoint x="236" y="43" />
              <mxPoint x="236" y="50" />
              <mxPoint x="166" y="50" />
            </Array>
          </mxGeometry>
        </mxCell>
        <mxCell id="zpK8R6Z0TQCC7PV_zkhn-15" value="" style="shape=message;html=1;outlineConnect=0;" vertex="1" parent="zpK8R6Z0TQCC7PV_zkhn-14">
          <mxGeometry width="20" height="14" relative="1" as="geometry">
            <mxPoint x="-10" y="-7" as="offset" />
          </mxGeometry>
        </mxCell>
        <mxCell id="zpK8R6Z0TQCC7PV_zkhn-23" value="" style="endArrow=classic;html=1;strokeColor=#b85450;edgeStyle=orthogonalEdgeStyle;fillColor=#f8cecc;exitX=0.5;exitY=1;exitDx=0;exitDy=0;" edge="1" parent="yvAMT9Jdo3WJvmyWWWsH-15" source="zpK8R6Z0TQCC7PV_zkhn-9">
          <mxGeometry relative="1" as="geometry">
            <mxPoint x="406" y="115" as="sourcePoint" />
            <mxPoint x="556" y="70" as="targetPoint" />
            <Array as="points">
              <mxPoint x="516" y="93" />
              <mxPoint x="516" y="70" />
            </Array>
          </mxGeometry>
        </mxCell>
        <mxCell id="zpK8R6Z0TQCC7PV_zkhn-24" value="" style="shape=message;html=1;outlineConnect=0;fillColor=#f8cecc;strokeColor=#b85450;" vertex="1" parent="zpK8R6Z0TQCC7PV_zkhn-23">
          <mxGeometry width="20" height="14" relative="1" as="geometry">
            <mxPoint x="-10" y="-7" as="offset" />
          </mxGeometry>
        </mxCell>
        <mxCell id="zpK8R6Z0TQCC7PV_zkhn-25" value="" style="endArrow=classic;html=1;strokeColor=#000000;entryX=0.85;entryY=0.95;entryDx=0;entryDy=0;exitX=0;exitY=0.25;exitDx=0;exitDy=0;entryPerimeter=0;edgeStyle=orthogonalEdgeStyle;" edge="1" parent="yvAMT9Jdo3WJvmyWWWsH-15" source="zpK8R6Z0TQCC7PV_zkhn-7" target="zpK8R6Z0TQCC7PV_zkhn-8">
          <mxGeometry relative="1" as="geometry">
            <mxPoint x="586" y="20" as="sourcePoint" />
            <mxPoint x="381" y="20" as="targetPoint" />
          </mxGeometry>
        </mxCell>
        <mxCell id="zpK8R6Z0TQCC7PV_zkhn-26" value="" style="shape=message;html=1;outlineConnect=0;" vertex="1" parent="zpK8R6Z0TQCC7PV_zkhn-25">
          <mxGeometry width="20" height="14" relative="1" as="geometry">
            <mxPoint x="-10" y="-7" as="offset" />
          </mxGeometry>
        </mxCell>
        <mxCell id="fmMvQ1CZ4i4TI4SBkcEm-42" value="" style="endArrow=classic;html=1;strokeColor=#000000;exitX=0.5;exitY=0;exitDx=0;exitDy=0;edgeStyle=orthogonalEdgeStyle;entryX=0.5;entryY=0;entryDx=0;entryDy=0;" parent="yvAMT9Jdo3WJvmyWWWsH-12" source="XuUBlldkIkATHeK3EOdW-91" target="fmMvQ1CZ4i4TI4SBkcEm-39" edge="1">
          <mxGeometry relative="1" as="geometry">
            <mxPoint x="345" y="45" as="sourcePoint" />
            <mxPoint x="216" y="308" as="targetPoint" />
            <Array as="points">
              <mxPoint x="246" y="145" />
              <mxPoint x="246" y="260" />
              <mxPoint x="156" y="260" />
            </Array>
          </mxGeometry>
        </mxCell>
        <mxCell id="fmMvQ1CZ4i4TI4SBkcEm-43" value="" style="shape=message;html=1;outlineConnect=0;" parent="fmMvQ1CZ4i4TI4SBkcEm-42" vertex="1">
          <mxGeometry width="20" height="14" relative="1" as="geometry">
            <mxPoint x="-10" y="-34" as="offset" />
          </mxGeometry>
        </mxCell>
        <mxCell id="fmMvQ1CZ4i4TI4SBkcEm-44" value="" style="endArrow=classic;html=1;strokeColor=#000000;edgeStyle=orthogonalEdgeStyle;entryX=0.5;entryY=1;entryDx=0;entryDy=0;" parent="yvAMT9Jdo3WJvmyWWWsH-12" target="XuUBlldkIkATHeK3EOdW-91" edge="1">
          <mxGeometry relative="1" as="geometry">
            <mxPoint x="576" y="40" as="sourcePoint" />
            <mxPoint x="415" y="45" as="targetPoint" />
          </mxGeometry>
        </mxCell>
        <mxCell id="fmMvQ1CZ4i4TI4SBkcEm-45" value="" style="shape=message;html=1;outlineConnect=0;" parent="fmMvQ1CZ4i4TI4SBkcEm-44" vertex="1">
          <mxGeometry width="20" height="14" relative="1" as="geometry">
            <mxPoint x="-10" y="-7" as="offset" />
          </mxGeometry>
        </mxCell>
        <mxCell id="zpK8R6Z0TQCC7PV_zkhn-19" value="" style="endArrow=classic;html=1;strokeColor=#b85450;entryX=0.15;entryY=0.05;entryDx=0;entryDy=0;exitX=1;exitY=0.25;exitDx=0;exitDy=0;edgeStyle=orthogonalEdgeStyle;fillColor=#f8cecc;entryPerimeter=0;" edge="1" parent="yvAMT9Jdo3WJvmyWWWsH-12" source="fmMvQ1CZ4i4TI4SBkcEm-39" target="fmMvQ1CZ4i4TI4SBkcEm-62">
          <mxGeometry relative="1" as="geometry">
            <mxPoint x="216" y="344.5" as="sourcePoint" />
            <mxPoint x="333" y="323" as="targetPoint" />
            <Array as="points">
              <mxPoint x="296" y="314" />
              <mxPoint x="296" y="198" />
            </Array>
          </mxGeometry>
        </mxCell>
        <mxCell id="zpK8R6Z0TQCC7PV_zkhn-20" value="" style="shape=message;html=1;outlineConnect=0;fillColor=#f8cecc;strokeColor=#b85450;" vertex="1" parent="zpK8R6Z0TQCC7PV_zkhn-19">
          <mxGeometry width="20" height="14" relative="1" as="geometry">
            <mxPoint x="-10" y="-7" as="offset" />
          </mxGeometry>
        </mxCell>
        <mxCell id="zpK8R6Z0TQCC7PV_zkhn-21" value="" style="endArrow=classic;html=1;strokeColor=#b85450;entryX=0;entryY=0.5;entryDx=0;entryDy=0;edgeStyle=orthogonalEdgeStyle;fillColor=#f8cecc;" edge="1" parent="yvAMT9Jdo3WJvmyWWWsH-12" target="fmMvQ1CZ4i4TI4SBkcEm-40">
          <mxGeometry relative="1" as="geometry">
            <mxPoint x="400" y="190" as="sourcePoint" />
            <mxPoint x="586.5" y="80.00000000000009" as="targetPoint" />
            <Array as="points">
              <mxPoint x="536" y="190" />
              <mxPoint x="536" y="45" />
            </Array>
          </mxGeometry>
        </mxCell>
        <mxCell id="zpK8R6Z0TQCC7PV_zkhn-22" value="" style="shape=message;html=1;outlineConnect=0;fillColor=#f8cecc;strokeColor=#b85450;" vertex="1" parent="zpK8R6Z0TQCC7PV_zkhn-21">
          <mxGeometry width="20" height="14" relative="1" as="geometry">
            <mxPoint x="-10" y="-7" as="offset" />
          </mxGeometry>
        </mxCell>
        <mxCell id="yvAMT9Jdo3WJvmyWWWsH-21" value="" style="endArrow=classic;html=1;strokeColor=#000000;entryX=1;entryY=0.5;entryDx=0;entryDy=0;exitX=0.5;exitY=0;exitDx=0;exitDy=0;" parent="1" source="Vw3KiEQnQfza69MFVmrH-16" target="Vw3KiEQnQfza69MFVmrH-1" edge="1">
          <mxGeometry relative="1" as="geometry">
            <mxPoint x="400" y="122" as="sourcePoint" />
            <mxPoint x="300" y="122" as="targetPoint" />
          </mxGeometry>
        </mxCell>
        <mxCell id="yvAMT9Jdo3WJvmyWWWsH-22" value="" style="shape=message;html=1;outlineConnect=0;" parent="yvAMT9Jdo3WJvmyWWWsH-21" vertex="1">
          <mxGeometry width="20" height="14" relative="1" as="geometry">
            <mxPoint x="-10" y="-7" as="offset" />
          </mxGeometry>
        </mxCell>
        <mxCell id="yvAMT9Jdo3WJvmyWWWsH-23" value="" style="endArrow=classic;html=1;strokeColor=#000000;entryX=0.5;entryY=1;entryDx=0;entryDy=0;exitX=0;exitY=0.5;exitDx=0;exitDy=0;" parent="1" source="Vw3KiEQnQfza69MFVmrH-3" target="Vw3KiEQnQfza69MFVmrH-16" edge="1">
          <mxGeometry relative="1" as="geometry">
            <mxPoint x="605" y="92" as="sourcePoint" />
            <mxPoint x="440" y="92" as="targetPoint" />
          </mxGeometry>
        </mxCell>
        <mxCell id="yvAMT9Jdo3WJvmyWWWsH-24" value="" style="shape=message;html=1;outlineConnect=0;" parent="yvAMT9Jdo3WJvmyWWWsH-23" vertex="1">
          <mxGeometry width="20" height="14" relative="1" as="geometry">
            <mxPoint x="-10" y="-7" as="offset" />
          </mxGeometry>
        </mxCell>
      </root>
    </mxGraphModel>
  </diagram>
</mxfile>
